<svg xmlns="http://www.w3.org/2000/svg" style="display: none">
	<symbol id="icon-menu" viewBox="0 0 438.533 438.533">
		<path d="M420.265 328.897h-401.991c-4.952 0-9.235 1.813-12.851 5.428-3.616 3.613-5.423 7.899-5.423 12.847v36.548c0 4.949 1.807 9.23 5.424 12.848 3.619 3.613 7.902 5.424 12.851 5.424h401.991c4.948 0 9.229-1.811 12.847-5.424 3.614-3.617 5.421-7.898 5.421-12.848v-36.548c0-4.948-1.8-9.233-5.421-12.847-3.618-3.614-7.896-5.428-12.848-5.428zm12.847-286.929c-3.617-3.617-7.898-5.426-12.847-5.426h-401.991c-4.952 0-9.235 1.809-12.851 5.426-3.616 3.615-5.423 7.898-5.423 12.845v36.547c0 4.949 1.807 9.229 5.424 12.847 3.619 3.618 7.902 5.424 12.851 5.424h401.991c4.948 0 9.229-1.807 12.847-5.424 3.614-3.617 5.421-7.898 5.421-12.847v-36.547c-.001-4.947-1.805-9.23-5.422-12.845zm-12.847 140.752h-401.991c-4.952 0-9.235 1.809-12.851 5.426-3.616 3.615-5.423 7.898-5.423 12.846v36.547c0 4.948 1.807 9.236 5.424 12.847 3.619 3.614 7.902 5.428 12.851 5.428h401.991c4.948 0 9.229-1.813 12.847-5.428 3.614-3.61 5.421-7.898 5.421-12.847v-36.547c0-4.948-1.807-9.231-5.421-12.847-3.618-3.617-7.896-5.425-12.848-5.425z"/>
	</symbol>
	<symbol id="icon-plus" viewBox="0 0 401.994 401.994">
		<path d="M394 154.175c-5.331-5.33-11.806-7.994-19.417-7.994h-118.772v-118.775c0-7.611-2.666-14.084-7.994-19.414-5.329-5.326-11.797-7.992-19.419-7.992h-54.812c-7.612 0-14.084 2.663-19.414 7.993-5.33 5.33-7.994 11.803-7.994 19.414v118.775h-118.771c-7.611 0-14.084 2.664-19.414 7.994s-7.993 11.797-7.993 19.413v54.819c0 7.618 2.662 14.086 7.992 19.411 5.33 5.332 11.803 7.994 19.414 7.994h118.771v118.777c0 7.611 2.664 14.089 7.994 19.417 5.33 5.325 11.802 7.987 19.414 7.987h54.816c7.617 0 14.086-2.662 19.417-7.987 5.332-5.331 7.994-11.806 7.994-19.417v-118.777h118.77c7.618 0 14.089-2.662 19.417-7.994 5.329-5.325 7.994-11.793 7.994-19.411v-54.819c-.002-7.616-2.661-14.087-7.993-19.414z"/>
	</symbol>
	<symbol id="icon-checkbox-unchecked" viewBox="-36.4015 0 474.8 401.998">
		<path d="M377.87 24.126c-16.084-16.084-35.453-24.126-58.101-24.126h-237.542c-22.648 0-42.016 8.042-58.102 24.126-16.081 16.086-24.123 35.45-24.123 58.102v237.543c0 22.647 8.042 42.014 24.123 58.101 16.086 16.085 35.454 24.127 58.102 24.127h237.542c22.648 0 42.011-8.042 58.102-24.127 16.085-16.087 24.126-35.453 24.126-58.101v-237.543c-.004-22.648-8.046-42.016-24.127-58.102zm-12.422 295.645c0 12.559-4.47 23.314-13.415 32.264-8.945 8.945-19.698 13.411-32.265 13.411h-237.541c-12.563 0-23.317-4.466-32.264-13.411-8.945-8.949-13.418-19.705-13.418-32.264v-237.543c0-12.562 4.473-23.316 13.418-32.264 8.947-8.946 19.701-13.418 32.264-13.418h237.542c12.566 0 23.319 4.473 32.265 13.418 8.945 8.947 13.415 19.701 13.415 32.264v237.543h-.001z"/>
	</symbol>
	<symbol id="icon-checkbox-checked" viewBox="-36.4015 36.4015 474.8 438.3995">
		<path d="M396.283 257.097c-1.14-.575-2.282-.862-3.433-.862-2.478 0-4.661.951-6.563 2.857l-18.274 18.271c-1.708 1.715-2.566 3.806-2.566 6.283v72.513c0 12.565-4.463 23.314-13.415 32.264-8.945 8.945-19.701 13.418-32.264 13.418h-237.542c-12.564 0-23.319-4.473-32.264-13.418-8.947-8.949-13.418-19.698-13.418-32.264v-237.537c0-12.562 4.471-23.316 13.418-32.264 8.945-8.946 19.7-13.418 32.264-13.418h237.544c4.188 0 8.47.571 12.847 1.714 1.143.378 1.999.571 2.563.571 2.478 0 4.668-.949 6.57-2.852l13.99-13.99c2.282-2.281 3.142-5.043 2.566-8.276-.571-3.046-2.286-5.236-5.141-6.567-10.272-4.752-21.412-7.139-33.403-7.139h-237.536c-22.65 0-42.018 8.042-58.102 24.126-16.082 16.086-24.124 35.451-24.124 58.102v237.543c0 22.647 8.042 42.014 24.125 58.098 16.084 16.088 35.452 24.13 58.102 24.13h237.541c22.647 0 42.017-8.042 58.101-24.13 16.085-16.084 24.134-35.45 24.134-58.098v-90.797c-.002-3.994-1.915-6.752-5.72-8.278zM467.95 93.216l-31.409-31.409c-4.568-4.567-9.996-6.851-16.279-6.851-6.275 0-11.707 2.284-16.271 6.851l-184.726 184.725-75.084-75.089c-4.569-4.57-9.995-6.851-16.274-6.851-6.28 0-11.704 2.281-16.274 6.851l-31.405 31.405c-4.568 4.568-6.854 9.994-6.854 16.277 0 6.28 2.286 11.704 6.854 16.274l122.767 122.767c4.569 4.571 9.995 6.851 16.274 6.851 6.279 0 11.704-2.279 16.274-6.851l232.404-232.403c4.565-4.567 6.854-9.994 6.854-16.274s-2.283-11.706-6.851-16.273z"/>
	</symbol>
	<symbol id="icon-arrow-right-fill" viewBox="0 0 292.362 292.362">
		<path d="M286.935 69.377c-3.614-3.617-7.898-5.424-12.848-5.424h-255.813c-4.952 0-9.233 1.807-12.85 5.424-3.617 3.621-5.424 7.902-5.424 12.851 0 4.948 1.807 9.229 5.424 12.847l127.907 127.907c3.621 3.617 7.902 5.428 12.85 5.428s9.233-1.811 12.847-5.428l127.907-127.908c3.613-3.617 5.427-7.898 5.427-12.847 0-4.948-1.814-9.229-5.427-12.85z"/>
	</symbol>
</svg>